<svg width="57" height="44" viewBox="0 0 57 44" fill="none" xmlns="http://www.w3.org/2000/svg">
<g id="logos:mastercard" clip-path="url(#clip0_60_681)">
<path id="Vector" d="M10.3624 43.7813V40.8691C10.3624 39.7526 9.67792 39.0247 8.50475 39.0247C7.91827 39.0247 7.28281 39.2188 6.84284 39.8498C6.50084 39.3159 6.01211 39.0247 5.2789 39.0247C4.78995 39.0247 4.30144 39.1702 3.91023 39.7041V39.1217H2.88379V43.7813H3.91023V41.2088C3.91023 40.3838 4.3502 39.9953 5.03465 39.9953C5.71865 39.9953 6.06109 40.4322 6.06109 41.2088V43.7813H7.08754V41.2088C7.08754 40.3838 7.57605 39.9953 8.21151 39.9953C8.89595 39.9953 9.23795 40.4322 9.23795 41.2088V43.7813H10.3624ZM25.5633 39.1217H23.9016V37.7142H22.8752V39.1217H21.9465V40.0438H22.875V42.1796C22.875 43.2476 23.3149 43.8784 24.4881 43.8784C24.9281 43.8784 25.4166 43.7329 25.759 43.5388L25.4656 42.665C25.1723 42.8591 24.8303 42.9077 24.5859 42.9077C24.0971 42.9077 23.9016 42.6165 23.9016 42.131V40.0438H25.5633V39.1217ZM34.2638 39.0245C33.6774 39.0245 33.2864 39.3159 33.0419 39.7041V39.1217H32.0155V43.7813H33.0419V41.1603C33.0419 40.3838 33.3839 39.9469 34.0194 39.9469C34.2149 39.9469 34.4593 39.9956 34.6548 40.044L34.9481 39.0733C34.7526 39.0247 34.4593 39.0247 34.2638 39.0247V39.0245ZM21.1155 39.51C20.6266 39.1702 19.9424 39.0247 19.2092 39.0247C18.0362 39.0247 17.2542 39.6071 17.2542 40.5293C17.2542 41.306 17.8407 41.7427 18.8672 41.8884L19.3559 41.9371C19.8936 42.0339 20.1869 42.1796 20.1869 42.4224C20.1869 42.762 19.7959 43.0048 19.1114 43.0048C18.4272 43.0048 17.8895 42.762 17.5473 42.5195L17.0585 43.296C17.5962 43.6843 18.3295 43.8784 19.0624 43.8784C20.4311 43.8784 21.2133 43.2476 21.2133 42.3738C21.2133 41.5486 20.5778 41.1117 19.6002 40.9662L19.1114 40.9176C18.6715 40.8689 18.3295 40.7721 18.3295 40.4809C18.3295 40.141 18.6715 39.9469 19.2092 39.9469C19.7959 39.9469 20.3823 40.1895 20.6756 40.3352L21.1155 39.51ZM48.3898 39.0247C47.8031 39.0247 47.4121 39.3159 47.1677 39.7041V39.1217H46.1412V43.7813H47.1677V41.1603C47.1677 40.3838 47.5099 39.9469 48.1451 39.9469C48.3408 39.9469 48.5853 39.9956 48.7808 40.044L49.0741 39.0733C48.8786 39.0247 48.5853 39.0247 48.3898 39.0247ZM35.2903 41.4515C35.2903 42.8591 36.2678 43.8784 37.7832 43.8784C38.4674 43.8784 38.9561 43.7329 39.4448 43.3446L38.9561 42.5195C38.5651 42.8107 38.1741 42.9562 37.7342 42.9562C36.9032 42.9562 36.3167 42.3738 36.3167 41.4515C36.3167 40.5779 36.9032 39.9953 37.7342 39.9469C38.1741 39.9469 38.5651 40.0924 38.9561 40.3838L39.4448 39.5586C38.9561 39.1702 38.4674 39.0247 37.7832 39.0247C36.2678 39.0247 35.2903 40.044 35.2903 41.4515ZM44.7728 41.4515V39.1217H43.7463V39.7041C43.4041 39.2675 42.9154 39.0247 42.2799 39.0247C40.9602 39.0247 39.9338 40.044 39.9338 41.4515C39.9338 42.8591 40.9602 43.8784 42.2799 43.8784C42.9641 43.8784 43.4531 43.6358 43.7463 43.1989V43.7813H44.7728V41.4515ZM41.009 41.4515C41.009 40.6264 41.5467 39.9469 42.4264 39.9469C43.2574 39.9469 43.8441 40.5779 43.8441 41.4515C43.8441 42.2767 43.2574 42.9562 42.4264 42.9562C41.5467 42.9075 41.009 42.2767 41.009 41.4515ZM28.7406 39.0247C27.372 39.0247 26.3943 39.9953 26.3943 41.4515C26.3943 42.9077 27.3717 43.8784 28.7894 43.8784C29.4736 43.8784 30.1581 43.6843 30.6958 43.2476L30.2068 42.5195C29.8158 42.8107 29.3271 43.0048 28.8384 43.0048C28.2029 43.0048 27.5675 42.7136 27.4207 41.8882H30.8913V41.5002C30.9403 39.9953 30.0605 39.0247 28.7406 39.0247ZM28.7406 39.8983C29.3759 39.8983 29.8161 40.2867 29.9136 41.0148H27.4697C27.5675 40.3838 28.0074 39.8983 28.7406 39.8983ZM54.2063 41.4515V37.2773H53.1798V39.7041C52.8376 39.2675 52.3489 39.0247 51.7134 39.0247C50.3937 39.0247 49.3673 40.044 49.3673 41.4515C49.3673 42.8591 50.3937 43.8784 51.7134 43.8784C52.3979 43.8784 52.8866 43.6358 53.1798 43.1989V43.7813H54.2063V41.4515ZM50.4427 41.4515C50.4427 40.6264 50.9802 39.9469 51.8601 39.9469C52.6911 39.9469 53.2776 40.5779 53.2776 41.4515C53.2776 42.2767 52.6911 42.9562 51.8601 42.9562C50.9802 42.9075 50.4427 42.2767 50.4427 41.4515ZM16.1298 41.4515V39.1217H15.1034V39.7041C14.7612 39.2675 14.2724 39.0247 13.637 39.0247C12.3173 39.0247 11.2908 40.044 11.2908 41.4515C11.2908 42.8591 12.3173 43.8784 13.637 43.8784C14.3214 43.8784 14.8101 43.6358 15.1034 43.1989V43.7813H16.1298V41.4515ZM12.3173 41.4515C12.3173 40.6264 12.855 39.9469 13.7347 39.9469C14.5657 39.9469 15.1524 40.5779 15.1524 41.4515C15.1524 42.2767 14.5657 42.9562 13.7347 42.9562C12.855 42.9075 12.3173 42.2767 12.3173 41.4515Z" fill="black"/>
<path id="Vector_2" d="M20.7734 3.73737H36.1701V31.2099H20.7734V3.73737Z" fill="#FF5F00"/>
<path id="Vector_3" d="M21.7511 17.4737C21.7511 11.8919 24.3904 6.94094 28.4472 3.73735C25.4659 1.40756 21.7023 0 17.5965 0C7.86934 0 0 7.81453 0 17.4737C0 27.1327 7.86934 34.9475 17.5963 34.9475C21.7021 34.9475 25.4656 33.5399 28.4472 31.2099C24.3904 28.055 21.7511 23.0556 21.7511 17.4737Z" fill="#EB001B"/>
<path id="Vector_4" d="M56.9433 17.4737C56.9433 27.1327 49.074 34.9475 39.347 34.9475C35.2412 34.9475 31.4777 33.5399 28.4961 31.2099C32.6019 28.0066 35.1925 23.0556 35.1925 17.4737C35.1925 11.8919 32.5529 6.94094 28.4961 3.73735C31.4775 1.40756 35.2412 0 39.347 0C49.074 0 56.9433 7.86318 56.9433 17.4737Z" fill="#F79E1B"/>
</g>
<defs>
<clipPath id="clip0_60_681">
<rect width="57" height="44" fill="white"/>
</clipPath>
</defs>
</svg>
