<svg width="41" height="41" viewBox="0 0 41 41" fill="none" xmlns="http://www.w3.org/2000/svg">
<g id="ic:baseline-telegram">
<path id="Vector" d="M20.4998 3.41669C11.0698 3.41669 3.4165 11.07 3.4165 20.5C3.4165 29.93 11.0698 37.5834 20.4998 37.5834C29.9298 37.5834 37.5832 29.93 37.5832 20.5C37.5832 11.07 29.9298 3.41669 20.4998 3.41669ZM28.4265 15.0334C28.1703 17.7325 27.0598 24.2925 26.4961 27.3163C26.2569 28.5975 25.7786 29.0246 25.3344 29.0759C24.3436 29.1613 23.5919 28.4267 22.6353 27.7946C21.1319 26.8038 20.2778 26.1888 18.8257 25.2321C17.1344 24.1217 18.2278 23.5067 19.2015 22.5159C19.4578 22.2596 23.8311 18.2792 23.9165 17.9204C23.9284 17.8661 23.9268 17.8097 23.9119 17.7561C23.897 17.7025 23.8693 17.6534 23.8311 17.6129C23.7286 17.5275 23.5919 17.5617 23.4723 17.5788C23.3186 17.6129 20.9269 19.2017 16.2632 22.345C15.5798 22.8063 14.9648 23.0454 14.4182 23.0284C13.8032 23.0113 12.6415 22.6867 11.7703 22.3963C10.694 22.0546 9.85692 21.8667 9.92525 21.2688C9.95942 20.9613 10.3865 20.6538 11.1894 20.3292C16.1778 18.1596 19.4919 16.7246 21.149 16.0413C25.8982 14.0596 26.8719 13.7179 27.5211 13.7179C27.6578 13.7179 27.9823 13.7521 28.1873 13.9229C28.3582 14.0596 28.4094 14.2475 28.4265 14.3842C28.4094 14.4867 28.4436 14.7942 28.4265 15.0334Z" fill="black"/>
</g>
</svg>
