<svg width="53" height="53" viewBox="0 0 53 53" fill="none" xmlns="http://www.w3.org/2000/svg">
<g clip-path="url(#clip0_60_679)">
<path d="M43.2565 24.2276C43.2565 24.2276 43.9554 27.6511 44.1128 28.3682H41.0404L42.5128 24.3651C42.4946 24.3932 42.8159 23.527 42.9998 22.9937L43.2565 24.2276ZM53.0002 10.3052V42.6948C52.9998 43.8662 52.5342 44.9894 51.7059 45.8177C50.8776 46.646 49.7544 47.1116 48.583 47.112H4.41575C3.24437 47.1116 2.12109 46.646 1.29279 45.8177C0.464499 44.9894 -0.00102588 43.8662 -0.00146484 42.6948V10.3052C-0.00102588 9.13377 0.464499 8.01049 1.29279 7.1822C2.12109 6.3539 3.24437 5.88838 4.41575 5.88794H48.583C49.7544 5.88838 50.8776 6.3539 51.7059 7.1822C52.5342 8.01049 52.9998 9.13377 53.0002 10.3052ZM14.0319 33.4198L19.847 19.1396H15.9366L12.321 28.8933L11.9252 26.9157L10.6366 20.3453C10.4246 19.4344 9.77207 19.176 8.96216 19.1396H3.0096L2.945 19.4245C4.30822 19.7589 5.61586 20.2889 6.82725 20.9979L10.1215 33.4198H14.0319ZM22.719 33.438L25.0377 19.1396H21.3393L19.0305 33.438H22.719ZM35.5913 28.7641C35.6096 27.136 34.6158 25.8938 32.4908 24.8719C31.194 24.2177 30.4023 23.7771 30.4023 23.1047C30.4205 22.4968 31.0748 21.8708 32.5273 21.8708C33.4734 21.8441 34.4134 22.0297 35.2783 22.414L35.6096 22.5697L36.1164 19.4775C35.059 19.0727 33.936 18.8666 32.8039 18.8696C29.1502 18.8696 26.583 20.8207 26.5648 23.5982C26.5366 25.6503 28.4049 26.7915 29.8044 27.4805C31.2304 28.1794 31.719 28.6398 31.719 29.256C31.7008 30.2133 30.5597 30.6538 29.5013 30.6538C28.0289 30.6538 27.2372 30.4236 26.0315 29.8903L25.5445 29.6601L25.0294 32.8716C25.894 33.2674 27.4956 33.6169 29.1518 33.6351C33.0341 33.6434 35.5648 31.7205 35.593 28.7591L35.5913 28.7641ZM48.583 33.438L45.6017 19.1396H42.7397C41.8569 19.1396 41.1845 19.398 40.8069 20.3271L35.3131 33.4397H39.1953C39.1953 33.4397 39.8297 31.6724 39.9688 31.2965H44.7173C44.8283 31.8033 45.1595 33.4397 45.1595 33.4397L48.583 33.438Z" fill="black"/>
</g>
<defs>
<clipPath id="clip0_60_679">
<rect width="53" height="53" fill="white"/>
</clipPath>
</defs>
</svg>
